<svg width="16" height="16" viewBox="0 0 16 16" fill="none" xmlns="http://www.w3.org/2000/svg">
<g clip-path="url(#clip0_4140_9687)">
<rect width="16" height="16" rx="8" fill="#6A91D9"/>
<path fill-rule="evenodd" clip-rule="evenodd" d="M20.9317 12.5141C21.3017 12.539 21.5937 12.8513 21.5859 13.2297L21.5355 15.7764V16.7763L1.04712 17V13.4847C1.04712 13.1535 1.28721 12.8782 1.60401 12.8242C1.70107 11.687 2.6724 3.7409 10.8672 3.70183C20.2399 3.65727 21.033 12.5118 21.033 12.5118L20.9317 12.5141Z" fill="#4B6699"/>
<path d="M7.66047 4.60805C7.67705 4.60167 7.6745 4.57872 7.65792 4.57489C7.45516 4.52388 7.2983 4.72792 7.23454 4.8733C7.18863 4.97787 7.16567 5.09265 7.17333 5.20359C7.17333 5.2138 7.22051 5.41529 7.24474 5.35407C7.2983 5.21252 7.34165 5.06842 7.39776 4.92814C7.44622 4.80571 7.51254 4.65396 7.66047 4.60805V4.60805Z" fill="black"/>
<path d="M9.1843 4.17325C8.97261 4.04572 8.61937 4.14774 8.5046 4.34541C8.49694 4.35816 8.51097 4.37474 8.52627 4.37219C8.66528 4.34413 8.80301 4.3046 8.94201 4.27272C8.96624 4.26761 9.23787 4.20895 9.18558 4.17325H9.1843Z" fill="black"/>
<path d="M9.81173 3.80088C9.90865 3.84679 10.0056 3.89143 10.1076 3.92841C10.1089 3.92841 10.2785 3.9909 10.2428 3.93861C10.1382 3.79706 9.96858 3.68101 9.78239 3.60449C9.7046 3.62745 9.62681 3.6504 9.55029 3.67463C9.63701 3.71927 9.72501 3.76008 9.81173 3.80216V3.80088Z" fill="black"/>
<path d="M11.2988 4.37219C11.3153 4.04955 11.0565 3.6963 10.7428 3.55347C10.7262 3.54582 10.7096 3.56367 10.7173 3.5777C10.8129 3.73456 10.9277 3.88121 11.0271 4.03552C11.082 4.12096 11.1368 4.20768 11.1955 4.29057C11.1955 4.29185 11.2937 4.43468 11.2988 4.37347V4.37219Z" fill="black"/>
<path d="M12.0397 4.49208C12.2349 4.2383 12.0461 3.86465 11.8242 3.67464C11.8115 3.66444 11.7898 3.67464 11.7911 3.68994C11.8178 3.85828 11.8931 4.01768 11.939 4.18092C11.9594 4.25488 11.9773 4.33012 11.9913 4.40536C11.9913 4.41174 12.004 4.53544 12.0397 4.49208V4.49208Z" fill="black"/>
<path d="M12.527 3.14281C12.5308 3.1224 12.5346 3.10073 12.5372 3.08032C12.5142 3.08287 12.4913 3.08415 12.467 3.0867C12.49 3.13261 12.5181 3.17597 12.527 3.14281V3.14281Z" fill="black"/>
<path d="M13.3432 3.93096C13.3432 3.93096 13.3023 4.07634 13.3521 4.03936C13.6454 3.80599 13.6785 3.34307 13.4605 3.05868C13.4503 3.04593 13.426 3.05359 13.426 3.06889C13.4337 3.26018 13.4426 3.44509 13.4095 3.63638C13.3929 3.73585 13.3687 3.83277 13.3444 3.93096H13.3432Z" fill="black"/>
<path d="M6.57016 5.09143C6.40693 5.22916 6.30364 5.423 6.25645 5.61811C6.23095 5.72141 6.22201 5.82725 6.23477 5.93182C6.23859 5.96116 6.25773 6.15117 6.30491 6.15627C6.35465 6.1601 6.41076 5.72141 6.42351 5.66657C6.46814 5.47528 6.53955 5.2942 6.60204 5.10801C6.60714 5.09143 6.58419 5.07995 6.57144 5.09016L6.57016 5.09143Z" fill="black"/>
<path d="M7.42076 7.05784C7.48325 7.03361 7.37485 6.9622 7.3468 6.93159C7.27028 6.84743 7.20142 6.75688 7.14658 6.65996C7.05094 6.4929 7.01523 6.31692 6.99355 6.132C6.991 6.11542 6.9655 6.11288 6.95784 6.1269C6.86603 6.30161 6.88133 6.50948 6.96422 6.68419C7.0114 6.78366 7.08537 6.87548 7.17718 6.94434C7.21544 6.9724 7.36338 7.07825 7.41949 7.05784H7.42076Z" fill="black"/>
<path d="M5.20045 7.11904C5.24636 7.12541 5.27951 6.75431 5.28589 6.71733C5.31394 6.56174 5.36496 6.41254 5.40704 6.25951C5.41087 6.24421 5.38919 6.23273 5.37643 6.24166C5.24126 6.3424 5.15837 6.49543 5.12266 6.64846C5.09843 6.75559 5.09587 6.86781 5.12648 6.97365C5.13541 7.00299 5.16219 7.11393 5.20045 7.11904V7.11904Z" fill="black"/>
<path d="M6.3163 6.71489C6.31502 6.69831 6.28952 6.69321 6.2806 6.70724C6.18623 6.84879 6.16327 7.0235 6.19388 7.18418C6.21939 7.32319 6.30738 7.54381 6.46296 7.60885C6.54202 7.642 6.51014 7.58717 6.49101 7.53616C6.45403 7.44179 6.41832 7.34614 6.39027 7.24922C6.33798 7.07196 6.3265 6.89598 6.3163 6.71489V6.71489Z" fill="black"/>
<path d="M4.3358 6.88067C4.32433 6.88194 4.31285 6.88449 4.30137 6.88577C4.23888 6.95081 4.17639 7.01584 4.11646 7.08088C4.16364 7.0541 4.20955 7.02477 4.25291 6.99289C4.26311 6.98524 4.40211 6.87556 4.33707 6.88067H4.3358Z" fill="black"/>
<path d="M4.66499 8.27068C4.72238 8.26813 4.75171 7.94422 4.75809 7.90341C4.78105 7.76058 4.81547 7.61648 4.82695 7.47237C4.82695 7.45707 4.80527 7.44814 4.79379 7.45834C4.66882 7.57439 4.60123 7.74272 4.58338 7.90086C4.57828 7.93784 4.57317 8.27451 4.66627 8.26941L4.66499 8.27068Z" fill="black"/>
<path d="M5.63017 8.32934C5.6493 8.37142 5.71051 8.5219 5.76662 8.5372C5.82784 8.55378 5.7934 8.44538 5.78958 8.41605C5.77555 8.31403 5.75642 8.21201 5.73857 8.10999C5.70541 7.92508 5.68756 7.73634 5.64675 7.5527C5.64292 7.53613 5.61742 7.53485 5.60977 7.55015C5.53708 7.71466 5.52688 7.90212 5.55493 8.07683C5.56896 8.16355 5.59191 8.24899 5.62889 8.32934H5.63017Z" fill="black"/>
<path d="M7.55982 8.83818C7.60701 8.79609 6.98596 8.29747 6.91072 8.24263C6.89669 8.23371 6.87628 8.24518 6.88011 8.26048C6.91709 8.41479 7.02932 8.55762 7.15684 8.66347C7.22826 8.72213 7.30987 8.77187 7.39786 8.80502C7.41827 8.81267 7.53687 8.85986 7.55982 8.83945V8.83818Z" fill="black"/>
<path d="M7.86966 8.41348C7.98443 8.47851 8.11069 8.5257 8.24204 8.55758C8.2905 8.56906 8.36319 8.59456 8.41548 8.58946C8.42568 8.58946 8.48944 8.58946 8.45501 8.56141C8.2956 8.44281 8.10431 8.36119 7.9296 8.26172C7.75489 8.16225 7.61461 8.04493 7.47689 7.9072C7.46413 7.89445 7.44118 7.9072 7.445 7.9225C7.49729 8.13547 7.66945 8.29998 7.87094 8.41348H7.86966Z" fill="black"/>
<path d="M7.74202 6.45335C7.7637 6.47631 7.86317 6.57323 7.90525 6.56048C7.94989 6.54645 7.79813 6.24676 7.78283 6.19703C7.73819 6.0542 7.72799 5.91264 7.71906 5.76599C7.71779 5.75068 7.69356 5.74431 7.68336 5.75706C7.57496 5.89479 7.56221 6.08225 7.61449 6.24038C7.64 6.31817 7.68208 6.39087 7.74074 6.45208L7.74202 6.45335Z" fill="black"/>
<path d="M8.48431 7.7861C8.56975 7.82819 8.66285 7.86007 8.75977 7.8741C8.78145 7.87792 8.91025 7.8996 8.9281 7.8741C8.96636 7.81926 8.21396 7.46729 8.12341 7.43158C8.10683 7.42521 8.09025 7.44178 8.09918 7.45581C8.18207 7.59737 8.33001 7.71086 8.48559 7.7861H8.48431Z" fill="black"/>
<path d="M8.68701 4.83133C8.44216 4.77522 8.14757 4.96013 8.08381 5.17182C8.07998 5.18585 8.09657 5.19861 8.11187 5.1935C8.23302 5.13994 8.34779 5.07235 8.46257 5.00987C8.49062 4.99456 8.74695 4.84791 8.68701 4.83133V4.83133Z" fill="black"/>
<path d="M10.3461 4.92059C10.1854 4.66554 9.77735 4.52781 9.46491 4.58902C9.44833 4.59285 9.44579 4.61453 9.46109 4.62218C9.63325 4.69615 9.81433 4.75353 9.98904 4.82367C10.077 4.85938 10.1638 4.89509 10.2543 4.92442C10.262 4.92697 10.3742 4.96778 10.3474 4.92059H10.3461Z" fill="black"/>
<path d="M10.8257 4.59787C10.8104 4.59277 10.7938 4.60935 10.8015 4.6221C10.8716 4.74453 10.9507 4.86312 11.0157 4.9881C11.0514 5.05696 11.0859 5.12838 11.1267 5.19597C11.1292 5.19979 11.1726 5.29034 11.1943 5.24315C11.2912 4.99958 11.0897 4.68076 10.827 4.59787H10.8257Z" fill="black"/>
<path d="M8.57749 5.51352C8.39513 5.54158 8.29948 5.70864 8.25995 5.85785C8.22297 5.99812 8.20129 6.23277 8.29439 6.35902C8.34157 6.42278 8.34922 6.36412 8.3607 6.31056C8.38366 6.21109 8.39513 6.11035 8.40916 6.0096C8.43212 5.84382 8.45507 5.66401 8.59407 5.54286C8.60555 5.53138 8.59407 5.51097 8.57622 5.51352H8.57749Z" fill="black"/>
<path d="M9.07225 5.41913C9.18575 5.40637 9.2967 5.39234 9.41019 5.38597C9.43187 5.38597 9.6984 5.3847 9.66397 5.33751C9.52369 5.16408 9.15897 5.20616 9.05185 5.39107C9.04547 5.40255 9.05694 5.41913 9.07225 5.41913V5.41913Z" fill="black"/>
<path d="M10.8678 5.85402C10.943 5.94201 11.0119 6.03383 11.0769 6.1282C11.0782 6.13075 11.1879 6.29654 11.1917 6.2366C11.2057 5.84637 10.8206 5.47144 10.4036 5.41023C10.3845 5.40768 10.3755 5.43064 10.3883 5.44084C10.5617 5.56837 10.7301 5.69334 10.8691 5.85402H10.8678Z" fill="black"/>
<path d="M8.97791 7.28992C9.04932 7.27716 8.95112 7.19427 8.92817 7.15601C8.87206 7.06037 8.84528 6.95452 8.83763 6.8474C8.82233 6.65356 8.86568 6.46355 8.87461 6.27098C8.87461 6.2544 8.84911 6.24803 8.84018 6.26078C8.71521 6.43804 8.64124 6.66631 8.66547 6.87673C8.67694 6.9711 8.7101 7.06802 8.77259 7.14454C8.80575 7.18407 8.91542 7.30012 8.97791 7.28864V7.28992Z" fill="black"/>
<path d="M10.1014 8.05637C9.99298 8.04107 9.88458 8.02832 9.77746 8.00664C9.5798 7.9671 9.44462 7.88931 9.31837 7.75031C9.30689 7.73756 9.28394 7.74648 9.28394 7.76306C9.29796 7.9365 9.43186 8.0653 9.60657 8.12651C9.69712 8.15839 9.79659 8.17242 9.89351 8.16859C9.96109 8.16604 10.1218 8.15712 10.1728 8.10611C10.2187 8.0602 10.1447 8.06275 10.1001 8.05637H10.1014Z" fill="black"/>
<path d="M10.3257 6.15376C10.0847 5.87575 9.55931 5.863 9.2762 6.09382C9.26345 6.1053 9.27493 6.1257 9.29151 6.12315C9.48662 6.09637 9.67408 6.07597 9.87175 6.09765C9.97759 6.10913 10.0834 6.12825 10.1867 6.15248C10.1893 6.15248 10.364 6.20222 10.3245 6.15248L10.3257 6.15376Z" fill="black"/>
<path d="M10.267 7.18163C10.2606 6.92403 9.98773 6.52614 9.66253 6.55037C9.64596 6.55037 9.63831 6.57333 9.65234 6.58225C9.79134 6.66642 9.88826 6.79395 9.98518 6.9151C10.0413 6.98651 10.0974 7.05665 10.1612 7.12297C10.1637 7.12552 10.2683 7.24029 10.2683 7.18163H10.267Z" fill="black"/>
<path d="M10.8689 6.6C10.8536 6.59362 10.8371 6.60893 10.8434 6.62295C10.911 6.75558 10.9875 6.88183 11.05 7.01701C11.0845 7.09097 11.1176 7.16621 11.1546 7.24018C11.1559 7.24273 11.198 7.33965 11.2196 7.29119C11.3217 7.03869 11.1355 6.70585 10.8689 6.6V6.6Z" fill="black"/>
<path d="M10.1089 7.64454C10.1943 7.63179 10.1356 7.60246 10.0859 7.57057C9.99409 7.51191 9.89845 7.45835 9.81046 7.39586C9.64723 7.28109 9.55668 7.14974 9.48016 6.98013C9.47251 6.96483 9.44701 6.96738 9.44318 6.98268C9.40238 7.15484 9.47251 7.32573 9.61024 7.44815C9.72119 7.54762 9.94308 7.66877 10.1089 7.64327V7.64454Z" fill="black"/>
<path d="M11.554 5.38473C11.5374 5.37452 11.5183 5.39238 11.5259 5.4064C11.6369 5.60534 11.7835 5.78643 11.8587 6.00067C11.8919 6.09377 11.911 6.19069 11.92 6.28888C11.9238 6.33224 11.9085 6.41769 11.9289 6.45722C11.9327 6.46615 11.9442 6.51333 11.9659 6.48017C12.2107 6.08102 11.9263 5.62447 11.5552 5.38345L11.554 5.38473Z" fill="black"/>
<path d="M12.4505 4.75226C12.4352 4.74205 12.4147 4.75608 12.4211 4.77139C12.4938 4.94865 12.5691 5.12208 12.6099 5.30827C12.6315 5.41029 12.6481 5.51486 12.6609 5.61816C12.6609 5.62198 12.6825 5.80307 12.7144 5.75079C12.9019 5.4307 12.7603 4.96905 12.4505 4.75098V4.75226Z" fill="black"/>
<path d="M12.7361 3.37498C12.7233 3.36478 12.7017 3.37499 12.7029 3.38901C12.7182 3.53567 12.7565 3.68105 12.7833 3.82515C12.7999 3.91569 12.8164 4.00624 12.8419 4.09423C12.8445 4.10188 12.8687 4.20135 12.898 4.15672C13.0396 3.91697 12.9503 3.55734 12.7361 3.37371V3.37498Z" fill="black"/>
<path d="M13.788 4.3913C13.7803 4.37982 13.7586 4.37982 13.751 4.3913C13.6962 4.4997 13.6796 4.62722 13.6821 4.74582C13.6821 4.76367 13.7229 5.03275 13.7701 4.97664C13.8926 4.81723 13.8862 4.55836 13.788 4.39002V4.3913Z" fill="black"/>
<path d="M14.6463 4.17199C14.7764 3.94754 14.7241 3.6096 14.5647 3.40684C14.5545 3.39536 14.5315 3.40046 14.529 3.41449C14.5099 3.56242 14.5239 3.71673 14.5405 3.86338C14.5494 3.94627 14.5634 4.03044 14.5889 4.11078C14.5915 4.11715 14.617 4.21535 14.6463 4.16944V4.17199Z" fill="black"/>
<path d="M15.8669 3.33417C15.8363 3.55989 15.8337 3.78816 15.8158 4.01516C15.8056 4.14141 15.7942 4.26766 15.7891 4.39391C15.7891 4.39901 15.7878 4.60688 15.8222 4.55459C16.0441 4.20517 16.0556 3.70272 15.9026 3.33034C15.8949 3.31376 15.8681 3.31886 15.8669 3.33417V3.33417Z" fill="black"/>
<path d="M15.0914 4.42579C15.0863 4.64896 15.0863 4.86831 15.0454 5.09021C15.0238 5.20498 14.997 5.31975 14.9664 5.43325C14.9587 5.46258 14.9115 5.56205 14.9243 5.59266C14.9281 5.60159 14.9319 5.63602 14.9549 5.61434C15.2712 5.31082 15.3247 4.78669 15.1258 4.41942C15.1169 4.40412 15.0914 4.41049 15.0901 4.42579H15.0914Z" fill="black"/>
<path d="M13.9106 5.54929C13.8889 5.69212 13.8978 5.8426 13.908 5.98671C13.9144 6.06832 13.9233 6.14994 13.945 6.229C13.9475 6.23666 13.9679 6.3323 13.9986 6.28894C14.1414 6.07597 14.1006 5.73931 13.945 5.54036C13.9348 5.52889 13.9118 5.53271 13.9093 5.54802L13.9106 5.54929Z" fill="black"/>
<path d="M12.9144 6.35394C12.9004 6.53248 12.9042 6.71229 12.8928 6.89082C12.8864 6.97881 12.88 7.06681 12.8775 7.1548C12.8775 7.15735 12.8685 7.31803 12.9119 7.27212C13.1249 7.026 13.1261 6.61026 12.9514 6.34628C12.9425 6.33226 12.917 6.33864 12.9157 6.35394H12.9144Z" fill="black"/>
<path d="M11.8 6.98513C11.8141 7.14836 11.8498 7.31287 11.8727 7.4761C11.8842 7.55772 11.8957 7.64061 11.9135 7.72223C11.9148 7.72988 11.9339 7.83317 11.9658 7.78982C12.1227 7.54624 12.0475 7.17259 11.8345 6.97237C11.823 6.9609 11.8001 6.96982 11.8013 6.98513H11.8Z" fill="black"/>
<path d="M10.4825 8.65065C10.6776 8.63535 10.8804 8.56776 11.0321 8.45427C11.1495 8.36755 11.328 8.138 11.2171 7.99262C11.175 7.93651 11.1699 7.99007 11.152 8.03853C11.1163 8.13545 11.0564 8.21579 10.976 8.2872C10.8256 8.42111 10.633 8.50272 10.4685 8.62005C10.4545 8.63025 10.4647 8.65193 10.4825 8.65065Z" fill="black"/>
<path d="M9.32458 9.09707C9.42277 9.10472 9.52351 9.09707 9.61661 9.07029C9.66379 9.05627 9.81427 9.01418 9.8334 8.96317C9.85381 8.91216 9.78877 8.93002 9.74669 8.93257C9.63956 8.93767 9.53244 8.94277 9.42404 8.94149C9.22893 8.93894 9.04402 8.90451 8.854 8.86753C8.83615 8.86498 8.82467 8.88538 8.83615 8.89686C8.95985 9.01801 9.14349 9.08305 9.32458 9.0958V9.09707Z" fill="black"/>
<path d="M6.91056 9.38907C7.00748 9.44391 7.11714 9.47961 7.23064 9.48982C7.28675 9.49492 7.46147 9.50639 7.501 9.45921C7.54309 9.40947 7.40026 9.4031 7.362 9.39417C7.25233 9.36612 7.14521 9.32658 7.04574 9.27812C6.85827 9.1863 6.72182 9.05368 6.59429 8.90192C6.58281 8.88917 6.55859 8.8981 6.55986 8.91467C6.58409 9.11361 6.72565 9.2845 6.91056 9.39035V9.38907Z" fill="black"/>
<path d="M4.92763 8.89935C4.92381 9.0256 4.9965 9.15185 5.08959 9.2424C5.14188 9.29341 5.20309 9.33676 5.27323 9.36354C5.29874 9.37375 5.40968 9.41583 5.43136 9.39542C5.48492 9.34697 5.02328 8.94143 4.96079 8.8866C4.94932 8.8764 4.92763 8.88532 4.92763 8.89935Z" fill="black"/>
<path d="M3.66626 8.05134C3.52981 8.24646 3.51323 8.49131 3.58719 8.70938C3.628 8.82798 3.69687 8.9402 3.79251 9.03074C3.82567 9.06135 3.9634 9.18887 4.01696 9.16464C4.05139 9.14806 3.91621 8.98993 3.90473 8.97208C3.84607 8.87899 3.79761 8.78207 3.76063 8.68004C3.68666 8.476 3.68156 8.27451 3.70069 8.06282C3.70069 8.04497 3.67519 8.03986 3.66626 8.05262V8.05134Z" fill="black"/>
<path d="M2.70616 9.2207C2.70616 9.20285 2.67811 9.2003 2.67046 9.21432C2.56716 9.41326 2.5289 9.63771 2.53273 9.85706C2.53528 9.98076 2.55314 10.1057 2.59139 10.2256C2.60415 10.2639 2.65387 10.45 2.70361 10.459C2.75972 10.4679 2.72785 10.2804 2.72657 10.2511C2.72019 10.1249 2.71382 9.99861 2.70872 9.87236C2.69979 9.65556 2.71382 9.43877 2.70744 9.22198L2.70616 9.2207Z" fill="black"/>
<path d="M4.36894 10.9104C4.41358 10.8849 4.26948 10.7867 4.24652 10.765C4.16491 10.6898 4.08712 10.6107 4.01698 10.5253C3.89328 10.3761 3.81038 10.2141 3.72749 10.0445C3.71984 10.0292 3.69305 10.0343 3.69178 10.0496C3.66627 10.246 3.74025 10.445 3.86522 10.6044C3.93408 10.6911 4.0208 10.7689 4.12155 10.825C4.16236 10.8479 4.32176 10.9385 4.37022 10.9091L4.36894 10.9104Z" fill="black"/>
<path d="M5.95155 10.9155C5.98088 10.8887 5.78449 10.7765 5.76664 10.7638C5.66972 10.6936 5.57535 10.6184 5.48735 10.5393C5.31264 10.3825 5.18512 10.2014 5.05377 10.0139C5.04229 9.99861 5.01806 10.0088 5.01934 10.0241C5.04357 10.2549 5.16982 10.4692 5.34708 10.635C5.444 10.7255 5.55877 10.802 5.68502 10.8543C5.72838 10.8722 5.90946 10.9525 5.95027 10.9142L5.95155 10.9155Z" fill="black"/>
<path d="M7.66803 10.7676C7.67185 10.7383 7.47419 10.6592 7.45123 10.6464C7.34411 10.5903 7.23826 10.5317 7.13624 10.4679C6.94367 10.3493 6.77662 10.2078 6.60318 10.0675C6.58788 10.056 6.56748 10.0713 6.57258 10.0866C6.66312 10.3009 6.84421 10.4819 7.05463 10.6082C7.10819 10.6401 7.654 10.8773 7.66803 10.7663V10.7676Z" fill="black"/>
<path d="M8.96635 10.5584C9.00589 10.5253 8.5825 10.3149 8.53021 10.2881C8.3453 10.1912 8.16677 10.0815 7.9793 9.98841C7.96273 9.98076 7.94487 9.99861 7.9538 10.0126C8.06347 10.1797 8.23307 10.3136 8.41799 10.4118C8.51491 10.4628 8.61821 10.5049 8.72533 10.5317C8.76741 10.5419 8.9281 10.5903 8.96635 10.5597V10.5584Z" fill="black"/>
<path d="M9.12189 9.85203C9.21498 9.87626 9.31062 9.89156 9.40754 9.89539C9.45728 9.89666 9.63454 9.90941 9.67408 9.87115C9.71744 9.8278 9.59246 9.80994 9.56185 9.80102C9.44836 9.76786 9.33358 9.7398 9.21881 9.71175C9.02242 9.66456 8.82858 9.60335 8.62964 9.56382C8.61179 9.56127 8.60031 9.58167 8.61178 9.59315C8.75079 9.7194 8.9357 9.80357 9.12316 9.85203H9.12189Z" fill="black"/>
<path d="M10.4073 10.2485C10.6075 10.3238 10.8345 10.3365 11.0474 10.3085C11.1533 10.2944 11.2591 10.2689 11.3573 10.2294C11.3943 10.2141 11.5652 10.1516 11.5729 10.1095C11.5831 10.0483 11.4338 10.0929 11.393 10.0993C11.2783 10.1146 11.1635 10.1325 11.05 10.149C10.8383 10.1796 10.6241 10.1886 10.4124 10.2154C10.3945 10.2179 10.392 10.2421 10.4073 10.2485Z" fill="black"/>
<path d="M10.6752 9.45406C10.9073 9.47956 11.1484 9.44513 11.369 9.38137C11.4901 9.34694 11.6075 9.30103 11.7159 9.24109C11.7554 9.21941 11.9339 9.13397 11.939 9.08678C11.9454 9.02557 11.8166 9.08296 11.7809 9.09316C11.6483 9.12887 11.5169 9.16968 11.3868 9.21048C11.1496 9.28317 10.9048 9.34184 10.6702 9.42218C10.6523 9.42855 10.6574 9.45278 10.674 9.45533L10.6752 9.45406Z" fill="black"/>
<path d="M12.2666 8.66082C12.5574 8.46698 12.7219 8.07037 12.6836 7.75156C12.6811 7.73498 12.6556 7.73115 12.6479 7.74518C12.5548 7.90841 12.4834 8.08312 12.403 8.25018C12.3559 8.34965 12.3074 8.44912 12.2679 8.55242C12.2653 8.55752 12.213 8.6927 12.2679 8.66082H12.2666Z" fill="black"/>
<path d="M12.9044 8.87386C12.8853 8.90829 12.833 8.97205 12.8292 9.01031C12.8292 9.01924 12.8139 9.06897 12.8496 9.04602C13.2436 8.78586 13.4515 8.27576 13.3916 7.84472C13.389 7.82687 13.361 7.82687 13.3546 7.8409C13.2704 8.06917 13.199 8.29744 13.0906 8.51806C13.032 8.63794 12.9682 8.75526 12.9032 8.87131L12.9044 8.87386Z" fill="black"/>
<path d="M14.0022 8.34584C14.1948 8.08696 14.2229 7.68271 14.1043 7.39322C14.0979 7.37792 14.0724 7.38047 14.0673 7.39449C14.0188 7.56793 14.001 7.75157 13.9818 7.92883C13.9703 8.0283 13.9614 8.12777 13.9614 8.22724C13.9614 8.22851 13.9614 8.39558 14.0022 8.34584V8.34584Z" fill="black"/>
<path d="M14.8235 7.64069C15.0709 7.34993 15.0734 6.87808 14.8758 6.56564C14.8656 6.55162 14.8413 6.558 14.8401 6.5733C14.8362 6.77096 14.849 6.96863 14.8324 7.16629C14.8235 7.27597 14.8107 7.38564 14.7993 7.49531C14.7993 7.49786 14.7801 7.68788 14.8222 7.64069H14.8235Z" fill="black"/>
<path d="M15.645 6.37689C15.6195 6.60899 15.6169 6.84109 15.5863 7.07318C15.5685 7.20963 15.5493 7.34481 15.5315 7.48127C15.5264 7.51952 15.5009 7.59604 15.5149 7.63302C15.5175 7.64195 15.5238 7.69296 15.5481 7.6598C15.8095 7.2989 15.8439 6.77222 15.6807 6.37307C15.673 6.35649 15.6463 6.36159 15.645 6.37689V6.37689Z" fill="black"/>
<path d="M14.0966 9.60458C14.4549 9.39289 14.6564 8.93507 14.6105 8.5576C14.608 8.53974 14.5812 8.53847 14.5748 8.55249C14.4881 8.74251 14.4154 8.93635 14.3185 9.12253C14.2598 9.23348 14.1986 9.34315 14.1374 9.4541C14.1323 9.46303 14.0418 9.63519 14.0979 9.60458H14.0966Z" fill="black"/>
<path d="M12.2847 10.0101C12.6889 10.0241 13.083 9.7066 13.1633 9.35845C13.1671 9.34187 13.1429 9.33167 13.1314 9.34315C12.9886 9.48087 12.8496 9.6186 12.6813 9.7321C12.5895 9.79459 12.4925 9.85198 12.3956 9.90809C12.3918 9.91064 12.2196 10.005 12.2859 10.0088L12.2847 10.0101Z" fill="black"/>
<path d="M10.6957 10.9118C10.9278 10.9793 11.1815 10.9819 11.42 10.9436C11.5552 10.922 11.6891 10.885 11.8128 10.8301C11.8523 10.8123 12.0462 10.7332 12.0462 10.6886C12.0462 10.6376 11.8485 10.7001 11.8166 10.7064C11.6802 10.7332 11.545 10.7613 11.4085 10.7868C11.1739 10.8289 10.9354 10.8467 10.6995 10.8799C10.6804 10.8824 10.6804 10.9079 10.6969 10.913L10.6957 10.9118Z" fill="black"/>
<path d="M8.65649 11.1425C8.83248 11.3007 9.08115 11.3861 9.326 11.3989C9.4497 11.4065 9.57595 11.395 9.69455 11.3619C9.7175 11.3555 9.9547 11.2815 9.91644 11.2407C9.89094 11.2127 9.7073 11.2458 9.67159 11.2458C9.55427 11.2496 9.43567 11.2484 9.31835 11.2394C9.09518 11.2229 8.88731 11.1693 8.67434 11.1132C8.65521 11.1081 8.64374 11.1298 8.65521 11.1412L8.65649 11.1425Z" fill="black"/>
<path d="M7.89379 11.7623C7.74713 11.6565 7.5686 11.5838 7.40026 11.5098C7.26126 11.4499 6.98708 11.3721 6.92842 11.2267C6.92076 11.2101 6.89526 11.2152 6.89271 11.2305C6.8468 11.4333 7.20388 11.6016 7.36328 11.6679C7.48061 11.7177 7.60558 11.7547 7.7331 11.7763C7.74586 11.7789 7.9448 11.8006 7.89506 11.7623H7.89379Z" fill="black"/>
<path d="M6.61084 11.9561C6.65164 11.9625 6.85952 11.9931 6.89522 11.951C6.92838 11.9115 6.77152 11.8732 6.74601 11.8643C6.63634 11.8235 6.5254 11.7827 6.417 11.7406C6.23209 11.6692 6.05865 11.5812 5.87756 11.5034C5.86098 11.497 5.84441 11.5149 5.85333 11.5289C5.96555 11.6832 6.13899 11.8005 6.3239 11.8758C6.41572 11.914 6.51264 11.9408 6.61211 11.9548L6.61084 11.9561Z" fill="black"/>
<path d="M5.01443 12.0391C5.12538 12.1182 5.2478 12.1857 5.3766 12.238C5.44419 12.2648 5.51306 12.2878 5.58447 12.3056C5.61125 12.312 5.70179 12.3452 5.7273 12.3324C5.79234 12.3005 5.60615 12.2189 5.57554 12.201C5.44674 12.1233 5.31922 12.0455 5.19424 11.9638C4.96342 11.8134 4.75938 11.6387 4.54386 11.4716C4.52856 11.4601 4.50688 11.4767 4.51453 11.492C4.62675 11.7075 4.80529 11.8924 5.01188 12.0391H5.01443Z" fill="black"/>
<path d="M8.45125 12.6524C8.45762 12.595 8.03297 12.5007 7.98323 12.4866C7.79704 12.4343 7.61213 12.3731 7.42211 12.3336C7.40426 12.331 7.39279 12.3514 7.40427 12.3629C7.54327 12.493 7.73328 12.5823 7.92202 12.6346C7.97813 12.6499 8.44105 12.7417 8.45125 12.6524Z" fill="black"/>
<path d="M10.4394 12.0951C10.4164 12.0632 10.2366 12.076 10.1983 12.0747C10.0912 12.0709 9.9841 12.0721 9.8757 12.0734C9.67931 12.076 9.47909 12.0709 9.28398 12.0887C9.26613 12.0913 9.2623 12.1142 9.2776 12.1219C9.47017 12.2035 9.69078 12.2328 9.90248 12.2316C9.95986 12.2316 10.4929 12.1691 10.4394 12.0964V12.0951Z" fill="black"/>
<path d="M11.3548 11.6846C11.5576 11.7432 11.7807 11.7267 11.9784 11.6629C12.0817 11.6297 12.1799 11.5826 12.2653 11.5201C12.3087 11.4895 12.4426 11.3964 12.4426 11.3415C12.4426 11.2778 12.324 11.3543 12.2896 11.3696C12.1837 11.4155 12.0766 11.4589 11.9669 11.4984C11.768 11.5698 11.5627 11.6068 11.3561 11.6527C11.3382 11.6565 11.3382 11.6807 11.3548 11.6858V11.6846Z" fill="black"/>
<path d="M13.4106 11.506C13.3532 11.441 12.523 12.0225 12.4274 12.099C12.4134 12.1105 12.4274 12.1309 12.444 12.1284C12.662 12.0914 12.8712 11.9945 13.0497 11.8771C13.1007 11.844 13.4731 11.5749 13.4106 11.506V11.506Z" fill="black"/>
<path d="M12.9351 10.862C13.1238 10.862 13.3087 10.7969 13.4618 10.7C13.5357 10.6528 13.6046 10.5967 13.6607 10.5317C13.7015 10.4858 13.7997 10.3748 13.792 10.3085C13.7844 10.2447 13.7334 10.3009 13.6964 10.3276C13.6148 10.3876 13.5344 10.4488 13.4516 10.5074C13.2832 10.6273 13.1021 10.7242 12.9249 10.8301C12.9096 10.839 12.9185 10.8607 12.9351 10.862Z" fill="black"/>
<path d="M14.2726 10.9512C14.5098 10.9091 14.7292 10.7956 14.9077 10.6515C15.0059 10.5725 15.0926 10.4819 15.1602 10.3799C15.1755 10.357 15.2954 10.181 15.252 10.1593C15.2163 10.1414 15.0888 10.2804 15.0671 10.2996C14.9753 10.3786 14.8847 10.4577 14.7904 10.5355C14.6208 10.6745 14.4346 10.7931 14.2573 10.9232C14.242 10.9347 14.256 10.9563 14.2726 10.9525V10.9512Z" fill="black"/>
<path d="M14.9691 9.39285C15.2688 9.19136 15.4626 8.79858 15.4715 8.46446C15.4715 8.44789 15.446 8.44151 15.4371 8.45426C15.3211 8.61367 15.2305 8.79093 15.1361 8.96054C15.08 9.06001 15.0277 9.16203 14.9818 9.2666C14.978 9.27425 14.9168 9.42601 14.9704 9.39285H14.9691Z" fill="black"/>
<path d="M15.9394 9.15948C16.3003 8.99114 16.5056 8.555 16.4393 8.20048C16.4355 8.1839 16.41 8.18263 16.4023 8.19666C16.3245 8.37264 16.2595 8.55118 16.1638 8.72079C16.1128 8.81133 16.058 8.89932 16.0032 8.98859C15.9955 9.00007 15.8807 9.18371 15.9381 9.1582L15.9394 9.15948Z" fill="black"/>
<path d="M14.3045 12.0262C14.7215 11.9472 15.0836 11.5799 15.1704 11.2114C15.1742 11.1948 15.15 11.1846 15.1372 11.1961C14.9854 11.3529 14.8439 11.5161 14.6794 11.6628C14.5876 11.7444 14.4932 11.8222 14.4001 11.9013C14.3976 11.9038 14.2381 12.0377 14.3045 12.0275V12.0262Z" fill="black"/>
<path d="M10.5669 12.6639C10.8308 12.7212 11.1139 12.6983 11.3703 12.6243C11.4264 12.6077 12.0181 12.3629 11.9365 12.2826C11.9148 12.2622 11.721 12.3476 11.6929 12.3565C11.5616 12.3999 11.4302 12.442 11.2963 12.4802C11.0565 12.5478 10.8117 12.5835 10.5669 12.6307C10.5477 12.6345 10.549 12.66 10.5669 12.6639Z" fill="black"/>
<path d="M8.63978 13.1268C8.67167 13.151 8.76476 13.165 8.80301 13.1791C8.92671 13.2237 9.05041 13.2696 9.17794 13.304C9.29399 13.3359 9.41259 13.3614 9.53374 13.3678C9.5924 13.3704 9.78624 13.3831 9.82705 13.3334C9.86913 13.2811 9.74671 13.2824 9.7008 13.2722C9.57838 13.2454 9.45722 13.2109 9.33479 13.1803C9.12693 13.1281 8.84255 13.0311 8.62448 13.0898C8.58112 13.1 8.63213 13.1217 8.63851 13.1268H8.63978Z" fill="black"/>
<path d="M11.49 13.3169C11.7476 13.3347 12.0116 13.2914 12.2564 13.22C12.3903 13.1804 12.5204 13.1294 12.6428 13.0657C12.6824 13.044 12.8711 12.9598 12.8647 12.9113C12.8609 12.8731 12.2768 13.0478 12.2233 13.0644C11.9784 13.1383 11.7259 13.1996 11.4849 13.285C11.4658 13.2914 11.4734 13.3156 11.49 13.3182V13.3169Z" fill="black"/>
<path d="M6.81495 13.4316C6.9514 13.4788 7.09423 13.5017 7.23961 13.4979C7.3225 13.4966 7.53802 13.4903 7.59541 13.4278C7.65024 13.3691 7.42579 13.387 7.38371 13.3831C7.22175 13.3704 7.06235 13.3398 6.90932 13.2926C6.63514 13.2097 6.41707 13.0618 6.20793 12.8871C6.19262 12.8743 6.17094 12.8922 6.17859 12.9062C6.30101 13.1523 6.53821 13.3347 6.81622 13.4303L6.81495 13.4316Z" fill="black"/>
<path d="M3.86922 12.2954C3.90365 12.3094 4.0095 12.3579 4.04393 12.3426C4.10769 12.3145 3.89473 12.1985 3.86157 12.173C3.7417 12.0786 3.63457 11.9728 3.54275 11.8554C3.37697 11.6425 3.29535 11.4116 3.23797 11.1604C3.23286 11.1413 3.20481 11.1451 3.20099 11.1604C3.14105 11.4282 3.21884 11.7049 3.38718 11.9307C3.47262 12.0454 3.58101 12.1436 3.70981 12.2189C3.76082 12.2482 3.81311 12.2737 3.86922 12.2954V12.2954Z" fill="black"/>
<path d="M2.233 12.0913C2.27254 12.1283 2.46001 12.3069 2.52759 12.2864C2.5735 12.2724 2.38859 12.0773 2.36308 12.0441C2.27509 11.9255 2.19602 11.8006 2.13354 11.6692C2.01876 11.4282 1.97413 11.1833 1.9448 10.9245C1.94225 10.9053 1.91419 10.9066 1.90781 10.9219C1.81982 11.1884 1.8517 11.4767 1.97158 11.7317C2.03406 11.8643 2.12079 11.988 2.23046 12.0913H2.233Z" fill="black"/>
<path d="M1.35954 12.53C1.37994 12.5504 1.44243 12.618 1.47432 12.6129C1.54063 12.604 1.4182 12.3438 1.40035 12.3017C1.34551 12.1653 1.29578 12.0237 1.22692 11.8924C1.21926 11.8796 1.19503 11.8809 1.18993 11.8949C1.14274 12.0339 1.1657 12.192 1.22309 12.326C1.25497 12.3999 1.2996 12.4701 1.35826 12.5287L1.35954 12.53Z" fill="black"/>
<path d="M0.749804 13.3934C0.781686 13.4316 0.886253 13.5757 0.944915 13.5808C1.01378 13.5872 0.932162 13.4622 0.920685 13.438C0.865848 13.3207 0.805912 13.2059 0.745975 13.0911C0.744699 13.0873 0.742152 13.0848 0.740877 13.0809C0.717922 13.1523 0.69624 13.2238 0.674561 13.2952C0.697515 13.3283 0.723024 13.3615 0.749804 13.3934Z" fill="black"/>
<path d="M1.06603 14.8421C1.10046 14.8064 0.733186 14.5156 0.691102 14.4761C0.595458 14.3881 0.508742 14.2937 0.422024 14.1993C0.406721 14.2567 0.39269 14.3141 0.378662 14.3702C0.428397 14.4429 0.487057 14.5118 0.552095 14.573C0.632437 14.6482 0.722981 14.7145 0.823726 14.7643C0.853057 14.7783 1.03415 14.8727 1.06603 14.8408V14.8421Z" fill="black"/>
<path d="M1.88992 14.3014C1.95879 14.3728 2.03658 14.4378 2.12457 14.4888C2.13605 14.4965 2.27377 14.5692 2.25082 14.5156C2.13349 14.2631 1.87717 14.0068 1.63487 13.8461C1.62085 13.8372 1.60044 13.8499 1.60554 13.8652C1.65782 14.0259 1.77004 14.1764 1.89119 14.3014H1.88992Z" fill="black"/>
<path d="M2.64618 13.6931C2.69209 13.7275 3.24299 14.0604 3.27742 13.9571C3.28635 13.9303 3.10017 13.8219 3.07721 13.8053C2.96499 13.725 2.85276 13.6446 2.74309 13.5604C2.54798 13.4087 2.37837 13.2378 2.19601 13.0746C2.18198 13.0618 2.15903 13.0771 2.1654 13.0924C2.25977 13.3271 2.43576 13.5337 2.64618 13.6944V13.6931Z" fill="black"/>
<path d="M4.40724 13.9354C4.43402 13.9494 4.64316 14.0489 4.65081 13.9915C4.65591 13.9596 4.47355 13.8423 4.44805 13.8168C4.36005 13.7275 4.28481 13.6281 4.20957 13.5299C4.06801 13.345 3.92264 13.1524 3.70329 13.0363C3.68544 13.0274 3.66886 13.0465 3.67779 13.0606C3.82572 13.2595 3.94814 13.475 4.10373 13.6701C4.18662 13.7734 4.28481 13.8704 4.40596 13.9354H4.40724Z" fill="black"/>
<path d="M6.06128 13.8078C6.06765 13.7695 5.93758 13.6688 5.9108 13.642C5.82535 13.5578 5.73481 13.4775 5.643 13.3984C5.49762 13.2709 5.35351 13.137 5.1941 13.0248C5.1788 13.0146 5.1584 13.0299 5.16477 13.0452C5.25149 13.239 5.40452 13.4125 5.57158 13.5553C5.61366 13.591 6.0498 13.8881 6.06255 13.8091L6.06128 13.8078Z" fill="black"/>
<path d="M4.83696 15.0869C4.95301 15.1405 5.07925 15.1813 5.20806 15.203C5.25396 15.2106 5.47969 15.2553 5.51157 15.2081C5.52687 15.1851 4.98999 14.9785 4.93388 14.953C4.72091 14.8599 4.52452 14.7439 4.32048 14.638C4.30263 14.6291 4.28605 14.6482 4.29497 14.6623C4.42632 14.8459 4.62272 14.9874 4.83823 15.0869H4.83696Z" fill="black"/>
<path d="M3.77337 15.6697C3.7874 15.6352 3.61907 15.5434 3.59357 15.5256C3.47879 15.4452 3.36529 15.3649 3.25434 15.2807C3.06305 15.1353 2.89472 14.9721 2.71363 14.8178C2.69833 14.805 2.67665 14.8216 2.68303 14.8356C2.77485 15.0563 2.94318 15.2488 3.14212 15.4006C3.18803 15.435 3.73257 15.7666 3.77465 15.6697H3.77337Z" fill="black"/>
<path d="M1.81862 15.9132C1.84795 15.9349 1.98186 16.0459 2.02267 16.0318C2.09025 16.0076 1.78802 15.6722 1.75741 15.639C1.62223 15.4924 1.48195 15.3432 1.31872 15.2208C1.30469 15.2106 1.28301 15.2246 1.28812 15.2399C1.34933 15.4044 1.45773 15.5562 1.5776 15.6913C1.65029 15.7729 1.72935 15.8482 1.81862 15.9145V15.9132Z" fill="black"/>
<path d="M0.114769 15.6136C0.0675841 15.8789 0.029331 16.1187 0 16.3291C0.102021 16.111 0.138999 15.8496 0.114769 15.6136Z" fill="black"/>
<path d="M5.03341 16.5611C5.16093 16.6325 5.30249 16.6835 5.44914 16.709C5.51546 16.7205 5.73353 16.76 5.78581 16.7167C5.8381 16.672 5.62385 16.6363 5.58942 16.6249C5.43766 16.5764 5.29228 16.5152 5.15328 16.4425C4.90716 16.3137 4.71714 16.1415 4.52968 15.9528C4.51565 15.9388 4.4927 15.9541 4.4978 15.9694C4.58834 16.218 4.786 16.4234 5.03085 16.5611H5.03341Z" fill="black"/>
<path d="M7.10947 16.0038C7.1184 15.9668 6.93093 15.9005 6.90415 15.8864C6.79193 15.8316 6.6797 15.778 6.56875 15.7207C6.36854 15.6174 6.18363 15.4962 5.98979 15.384C5.97321 15.3751 5.95535 15.3929 5.96301 15.4069C6.08288 15.5957 6.2729 15.7487 6.48077 15.8571C6.53816 15.8877 7.08524 16.1045 7.10947 16.0038V16.0038Z" fill="black"/>
<path d="M7.13636 15.0805C7.15293 15.0384 6.67982 14.8752 6.62371 14.8497C6.42222 14.7617 6.2373 14.652 6.04473 14.5512C6.02816 14.5423 6.0103 14.5614 6.01923 14.5742C6.13655 14.7527 6.32529 14.8917 6.52933 14.9836C6.63645 15.032 6.75251 15.0664 6.87111 15.083C6.90426 15.0881 7.11978 15.12 7.13636 15.0792V15.0805Z" fill="black"/>
<path d="M8.05953 14.7732C8.19216 14.8153 8.33244 14.842 8.47399 14.8484C8.51863 14.8497 8.7367 14.8663 8.76093 14.8255C8.78771 14.7796 8.57729 14.7489 8.54541 14.7413C8.40895 14.7056 8.27251 14.6699 8.13733 14.6303C7.90396 14.5615 7.68461 14.4684 7.45762 14.3868C7.43849 14.3804 7.42574 14.4021 7.43721 14.4136C7.60427 14.5806 7.82744 14.6992 8.06081 14.7732H8.05953Z" fill="black"/>
<path d="M10.0389 14.4352C10.0823 14.3906 9.95222 14.3702 9.91906 14.3587C9.80046 14.3204 9.68059 14.2873 9.56071 14.2541C9.34264 14.1929 9.1284 14.1177 8.90778 14.0654C8.88993 14.0616 8.87717 14.0832 8.88993 14.0934C9.04041 14.2299 9.23935 14.3243 9.44084 14.3842C9.55051 14.4174 9.66528 14.4403 9.78133 14.4467C9.82469 14.4492 10.0045 14.4696 10.0389 14.4352Z" fill="black"/>
<path d="M9.2903 15.912C9.34641 15.912 9.42803 15.9235 9.48287 15.9069C9.49179 15.9044 9.55938 15.8903 9.51603 15.8712C9.30688 15.7858 9.07224 15.7424 8.84779 15.7041C8.62207 15.6659 8.38997 15.6302 8.15915 15.6289C8.13874 15.6289 8.13492 15.6531 8.15022 15.6608C8.37084 15.7628 8.61824 15.824 8.86054 15.8674C9.00209 15.8929 9.1462 15.9095 9.2903 15.912V15.912Z" fill="black"/>
<path d="M10.0363 15.194C10.2008 15.2667 10.3934 15.2883 10.5757 15.2794C10.6739 15.2743 10.7721 15.2603 10.8665 15.2322C10.9137 15.2182 11.068 15.1787 11.0922 15.1315C11.1177 15.0805 11.0489 15.0958 11.0055 15.0958C10.8907 15.0971 10.7747 15.106 10.6599 15.1149C10.4559 15.1302 10.2467 15.1353 10.044 15.1608C10.0261 15.1634 10.0236 15.1863 10.0389 15.194H10.0363Z" fill="black"/>
<path d="M10.9875 14.1063C11.203 14.1547 11.4377 14.1458 11.6545 14.1063C11.7004 14.0973 12.2028 13.9545 12.1493 13.8946C12.1212 13.864 11.9542 13.9022 11.9159 13.9073C11.8075 13.9201 11.7004 13.9379 11.5933 13.9571C11.3918 13.9928 11.1839 14.0208 10.9875 14.0744C10.9697 14.0795 10.9709 14.1037 10.9875 14.1075V14.1063Z" fill="black"/>
<path d="M11.7565 16.0013C11.7731 15.9401 11.3382 15.9566 11.2821 15.9566C11.0985 15.9592 10.9085 15.9579 10.7261 15.9821C10.7083 15.9847 10.7044 16.0076 10.7197 16.0153C10.883 16.0905 11.0755 16.1173 11.2566 16.116C11.3586 16.116 11.4607 16.1046 11.5601 16.0791C11.592 16.0714 11.7463 16.037 11.7565 16.0013V16.0013Z" fill="black"/>
<path d="M11.8267 14.8025C12.0804 14.8663 12.3546 14.8421 12.5995 14.7605C12.7334 14.7158 12.8609 14.6521 12.9706 14.5692C13.0063 14.5424 13.1708 14.4238 13.1517 14.3753C13.1376 14.3396 12.9336 14.4557 12.9145 14.4646C12.7984 14.5169 12.6798 14.5641 12.5599 14.6062C12.3227 14.689 12.0779 14.7273 11.8292 14.7694C11.8101 14.7732 11.8114 14.7974 11.8279 14.8025H11.8267Z" fill="black"/>
<path d="M13.769 12.8642C13.7728 12.8476 13.7499 12.8374 13.7371 12.8476C13.5892 12.9828 13.4629 13.1383 13.3328 13.2876C13.2525 13.3806 13.1747 13.475 13.1046 13.5732C13.102 13.577 12.9936 13.7377 13.0548 13.7109C13.3992 13.5554 13.6772 13.1957 13.7677 12.8629L13.769 12.8642Z" fill="black"/>
<path d="M14.2573 13.7325C14.6335 13.5808 14.9613 13.2199 15.0913 12.8705C15.0977 12.8539 15.0735 12.8424 15.0607 12.8526C14.8924 12.9916 14.7432 13.1523 14.5914 13.3066C14.4996 13.3997 14.4091 13.4941 14.3249 13.5923C14.3185 13.5999 14.1961 13.7568 14.2573 13.7338V13.7325Z" fill="black"/>
<path d="M15.8858 12.5671C16.2046 12.3847 16.4252 12.0021 16.4507 11.6654C16.4507 11.6489 16.4265 11.6412 16.4163 11.654C16.2926 11.8095 16.1919 11.9804 16.086 12.1462C16.0261 12.238 15.9687 12.3311 15.9164 12.4268C15.9139 12.4306 15.8271 12.5977 15.8858 12.5658V12.5671Z" fill="black"/>
<path d="M14.6783 14.6125C15.029 14.5118 15.3669 14.2274 15.5391 13.9392C15.5467 13.9239 15.5289 13.9086 15.5136 13.9162C15.3299 14.0106 15.1629 14.1368 15.0035 14.2618C14.9142 14.332 14.8275 14.4059 14.7484 14.485C14.7395 14.4939 14.6171 14.6278 14.6796 14.6125H14.6783Z" fill="black"/>
<path d="M2.80418 8.79483C2.84881 8.82289 2.88452 8.69536 2.89727 8.66858C2.92532 8.60864 2.95083 8.54871 2.97761 8.48877C2.91257 8.58059 2.85009 8.67241 2.7876 8.76423C2.79142 8.77825 2.79653 8.78845 2.80418 8.79483Z" fill="black"/>
<path d="M1.56991 11.3797C1.59797 11.3516 1.53293 11.1922 1.52528 11.1603C1.5189 11.1336 1.51253 11.1055 1.50615 11.0787C1.48065 11.1348 1.45514 11.191 1.43091 11.2483C1.47172 11.3108 1.54186 11.4078 1.56991 11.381V11.3797Z" fill="black"/>
<path d="M3.3054 9.00644C3.30412 8.98986 3.27734 8.98603 3.26968 9.00006C3.16894 9.17732 3.13706 9.38646 3.15109 9.58413C3.15746 9.67977 3.1766 9.77414 3.21103 9.86341C3.22633 9.90294 3.26969 10.0445 3.3207 10.0585C3.37553 10.0738 3.3462 9.90422 3.34493 9.87871C3.33983 9.77414 3.3309 9.66957 3.32453 9.565C3.31305 9.37881 3.31942 9.19262 3.30412 9.00771L3.3054 9.00644Z" fill="black"/>
<path d="M4.45444 10.2563C4.48504 10.283 4.57559 10.3685 4.62022 10.3647C4.68908 10.3583 4.49014 10.0599 4.46719 10.0203C4.37792 9.86604 4.30523 9.70408 4.21851 9.5485C4.20958 9.53447 4.18536 9.53829 4.18281 9.5536C4.15348 9.71938 4.20066 9.89537 4.28483 10.0433C4.32946 10.1211 4.38557 10.195 4.45571 10.2563H4.45444Z" fill="black"/>
<path d="M4.39195 8.97965C4.4251 9.01154 4.559 9.15309 4.61384 9.13141C4.65082 9.11738 4.51692 8.94267 4.50544 8.92482C4.4455 8.82407 4.39194 8.72078 4.34603 8.61366C4.25549 8.40196 4.22361 8.18644 4.19428 7.96327C4.19172 7.94542 4.16367 7.94414 4.15857 7.95945C4.07058 8.18262 4.08588 8.43002 4.17515 8.65064C4.22361 8.77051 4.2963 8.88529 4.39195 8.97965Z" fill="black"/>
<path d="M6.10472 9.41581C6.14808 9.43749 6.5026 9.56247 6.50898 9.4732C6.51153 9.44769 6.39548 9.39668 6.3789 9.38776C6.30621 9.34567 6.23225 9.30614 6.16083 9.26278C6.02566 9.18117 5.9045 9.08552 5.7757 8.99625C5.76168 8.98733 5.74127 9.00008 5.7451 9.01411C5.78973 9.18499 5.93894 9.33037 6.10345 9.41581H6.10472Z" fill="black"/>
<path d="M6.33679 10.5917C6.35847 10.6019 6.58419 10.7077 6.59184 10.6567C6.59694 10.6197 6.44008 10.519 6.4133 10.496C6.32531 10.4195 6.23859 10.3417 6.15825 10.2601C6.00522 10.1058 5.88534 9.93363 5.75909 9.76147C5.74761 9.74744 5.72338 9.75637 5.72466 9.77294C5.74889 9.99867 5.87259 10.2129 6.0422 10.3787C6.12765 10.4629 6.22584 10.5355 6.33679 10.5904V10.5917Z" fill="black"/>
<path d="M6.7678 8.60981C6.78693 8.58686 6.44898 8.28718 6.40945 8.23872C6.2832 8.08059 6.20668 7.90843 6.14037 7.72479C6.13399 7.70821 6.10722 7.71203 6.10339 7.72734C6.05621 7.93265 6.1238 8.14817 6.25642 8.31651C6.32529 8.4045 6.41455 8.48229 6.51785 8.53713C6.54718 8.55243 6.73592 8.6468 6.7678 8.60981V8.60981Z" fill="black"/>
<path d="M5.15081 8.49897C5.17632 8.54361 5.27069 8.67368 5.3421 8.66986C5.40459 8.66603 5.34975 8.60737 5.33445 8.57166C5.29747 8.49132 5.27707 8.40716 5.26814 8.32171C5.24901 8.14573 5.2809 7.97102 5.26814 7.79503C5.26687 7.77973 5.24136 7.77463 5.23243 7.78738C5.13806 7.92638 5.0845 8.09854 5.08833 8.26305C5.09088 8.34467 5.10873 8.42628 5.15081 8.50025V8.49897Z" fill="black"/>
<path d="M5.96938 6.1984C5.83166 6.34505 5.75642 6.53761 5.73091 6.72508C5.71688 6.82837 5.71688 6.93422 5.73856 7.03624C5.74749 7.07832 5.77554 7.24283 5.82782 7.25814C5.88011 7.27344 5.87119 7.10893 5.87246 7.0796C5.88139 6.97248 5.88904 6.86536 5.90179 6.75823C5.92347 6.57332 5.96938 6.39351 6.00254 6.20987C6.00509 6.1933 5.98086 6.18437 5.96938 6.19584V6.1984Z" fill="black"/>
<path d="M7.00114 7.24024C6.91314 7.13822 6.84173 7.02599 6.76011 6.92015C6.74991 6.90739 6.72696 6.91377 6.72441 6.92907C6.70655 7.09231 6.7869 7.26064 6.90295 7.38179C6.92973 7.40985 7.21156 7.63812 7.26895 7.5616C7.29828 7.52335 7.03047 7.27722 6.99986 7.24151L7.00114 7.24024Z" fill="black"/>
<path d="M8.78275 8.33308C8.82101 8.34073 9.03143 8.38791 9.06713 8.35475C9.11559 8.31012 8.96384 8.26804 8.92686 8.25146C8.82101 8.20427 8.71389 8.16091 8.60677 8.11628C8.41038 8.03594 8.21781 7.94157 8.0176 7.86888C7.99974 7.8625 7.98444 7.88291 7.99591 7.89566C8.11834 8.04232 8.29306 8.15454 8.47287 8.23488C8.57106 8.27824 8.67436 8.31267 8.78148 8.33435L8.78275 8.33308Z" fill="black"/>
<path d="M7.80711 10.3915C7.8798 10.3468 7.11592 9.81632 7.019 9.76658C7.0037 9.75893 6.98457 9.77551 6.99222 9.78954C7.07256 9.94002 7.20392 10.0688 7.34547 10.1747C7.42454 10.2346 7.50998 10.2869 7.60307 10.3277C7.63241 10.3404 7.77396 10.4106 7.80839 10.3902L7.80711 10.3915Z" fill="black"/>
<path d="M7.94741 9.49484C8.00734 9.53565 8.0762 9.56881 8.15017 9.58283C8.17695 9.58794 8.29172 9.60834 8.30958 9.58411C8.34783 9.5331 7.83773 9.21301 7.76631 9.16583C7.75356 9.15817 7.73316 9.16838 7.73443 9.18241C7.74718 9.30611 7.84028 9.42088 7.94741 9.49484Z" fill="black"/>
<path d="M8.81706 9.26659C8.84766 9.26659 8.94969 9.27296 8.96881 9.24873C9.00452 9.20027 8.70229 9.09952 8.65638 9.0804C8.50463 9.01791 8.35797 8.94394 8.20366 8.88528C8.18836 8.88018 8.17178 8.89548 8.17816 8.90951C8.25212 9.04596 8.3975 9.14926 8.54926 9.2092C8.63342 9.24235 8.72396 9.26404 8.81706 9.26659V9.26659Z" fill="black"/>
<path d="M10.0108 9.53566C10.0656 9.53311 10.3539 9.4974 10.3653 9.41834C10.3743 9.35585 10.0656 9.37753 10.0223 9.3788C9.86543 9.38135 9.70347 9.37752 9.54789 9.39155C9.53131 9.3941 9.52493 9.41451 9.53896 9.42343C9.67031 9.5127 9.85012 9.54458 10.0121 9.53566H10.0108Z" fill="black"/>
<path d="M10.1294 8.57921C10.1294 8.49122 9.58232 8.49759 9.51856 8.50269C9.50326 8.50397 9.49561 8.5231 9.50453 8.5333C9.59125 8.62385 9.73408 8.66721 9.86416 8.66848C9.91389 8.66848 10.1281 8.64935 10.1294 8.57921V8.57921Z" fill="black"/>
<path d="M10.6751 8.97842C10.6573 8.98224 10.656 9.0052 10.6726 9.01158C10.8741 9.07789 11.101 9.04728 11.2885 8.95929C11.3944 8.90828 11.49 8.83687 11.5614 8.74887C11.5895 8.71317 11.6979 8.57161 11.6711 8.52315C11.6405 8.46831 11.5678 8.57034 11.5359 8.59712C11.4479 8.67236 11.3523 8.73994 11.249 8.79733C11.0704 8.89553 10.8792 8.94399 10.6751 8.97842V8.97842Z" fill="black"/>
<path d="M10.438 8.32292C10.8831 8.27191 11.0425 7.71462 10.725 7.44937C10.7109 7.43789 10.6893 7.45065 10.6931 7.46595C10.7441 7.64704 10.7581 7.81792 10.6714 7.9939C10.628 8.08062 10.5681 8.15841 10.4954 8.22728C10.4916 8.2311 10.3743 8.32802 10.4368 8.32165L10.438 8.32292Z" fill="black"/>
<path d="M8.80067 3.93091C8.74966 3.95004 8.69994 3.96916 8.64893 3.98957C8.66805 3.98319 8.6859 3.97809 8.70503 3.97171C8.7063 3.97171 8.76879 3.95131 8.80067 3.93091Z" fill="black"/>
<path d="M12.2692 5.54028C12.2807 5.24697 12.0104 4.93708 11.7069 4.84781C11.6903 4.84271 11.675 4.86057 11.6852 4.8746C11.7885 5.01105 11.9058 5.13858 12.0104 5.27375C12.0614 5.34007 12.1124 5.40766 12.1672 5.47269C12.1685 5.47525 12.2654 5.59894 12.2705 5.53901L12.2692 5.54028Z" fill="black"/>
<path d="M13.1721 5.247C13.204 5.43447 13.2461 5.61938 13.2614 5.80939C13.269 5.91396 13.2741 6.01981 13.2792 6.12566C13.2792 6.12948 13.2869 6.31312 13.3226 6.26211C13.5254 5.95605 13.4552 5.50206 13.2066 5.23425C13.1938 5.2215 13.1708 5.2317 13.1734 5.24828L13.1721 5.247Z" fill="black"/>
<path d="M12.4528 7.23132C12.6033 7.00942 12.5472 6.66 12.3623 6.46744C12.3508 6.45596 12.3291 6.46361 12.3279 6.47892C12.3253 6.62685 12.3457 6.77605 12.361 6.92271C12.3699 7.0056 12.3801 7.08849 12.3993 7.16883C12.4005 7.17521 12.4197 7.27468 12.4516 7.23132H12.4528Z" fill="black"/>
<path d="M13.5802 6.70713C13.5445 6.86909 13.5343 7.03742 13.5152 7.20066C13.505 7.29248 13.4948 7.38302 13.4922 7.47484C13.4922 7.47739 13.4846 7.63297 13.5279 7.58834C13.7332 7.35624 13.7575 6.96601 13.6172 6.70331C13.6095 6.68928 13.584 6.69183 13.5815 6.70713H13.5802Z" fill="black"/>
<path d="M14.2369 4.74457C14.2649 4.90781 14.3108 5.06849 14.3402 5.23172C14.3542 5.31206 14.3682 5.39241 14.3861 5.47275C14.3861 5.4753 14.4141 5.6245 14.4473 5.57349C14.599 5.31334 14.5021 4.92821 14.27 4.73055C14.2573 4.72035 14.2356 4.73055 14.2369 4.74585V4.74457Z" fill="black"/>
<path d="M14.1847 6.98137C14.3288 6.91633 14.427 6.76585 14.4768 6.63322C14.5138 6.53375 14.5622 6.31951 14.4168 6.26467C14.4015 6.2583 14.3837 6.2736 14.3901 6.28763C14.4474 6.39092 14.3174 6.57328 14.274 6.66128C14.2358 6.74034 14.2 6.82069 14.1733 6.90358C14.1707 6.91251 14.135 7.0005 14.1835 6.98137H14.1847Z" fill="black"/>
<path d="M15.4713 5.66019C15.4611 5.64871 15.4382 5.65381 15.4356 5.66911C15.4191 5.80046 15.4038 5.92926 15.3668 6.05679C15.3489 6.11928 15.3285 6.18049 15.3094 6.24298C15.3068 6.24935 15.2597 6.36285 15.3145 6.34245C15.5759 6.2315 15.6448 5.85913 15.4726 5.66019H15.4713Z" fill="black"/>
<path d="M15.0443 3.74603C15.0443 3.74603 15.1221 3.92201 15.1374 3.86208C15.1935 3.58279 15.0979 3.2525 14.9219 3.00255C14.8823 3.00255 14.8428 3.00128 14.802 3C14.8364 3.14155 14.8836 3.28056 14.927 3.41956C14.9614 3.52923 14.9984 3.63891 15.043 3.74603H15.0443Z" fill="black"/>
<path d="M10.6051 10.5865C10.5873 10.5546 10.3807 10.6006 10.3475 10.6031C10.2251 10.6108 10.1027 10.6095 9.98153 10.5967C9.7456 10.5712 9.54411 10.4934 9.33497 10.3978C9.31711 10.3901 9.30054 10.4105 9.31074 10.4233C9.46249 10.612 9.70607 10.7255 9.95985 10.7536C10.1052 10.7702 10.2519 10.7574 10.3909 10.7141C10.4266 10.7026 10.6294 10.6312 10.6051 10.5878V10.5865Z" fill="black"/>
<path d="M10.7848 9.94385C10.8869 9.92982 10.9863 9.90431 11.0782 9.8635C11.1075 9.85075 11.3052 9.76276 11.2911 9.7194C11.2771 9.67477 10.8333 9.77806 10.7746 9.78571C10.5744 9.81377 10.3742 9.81759 10.1727 9.83035C10.1549 9.83162 10.1498 9.85458 10.1651 9.86223C10.3525 9.9515 10.5757 9.9719 10.7836 9.94385H10.7848Z" fill="black"/>
<path d="M11.8484 9.5855C12.0231 9.56765 12.1914 9.4822 12.3215 9.38018C12.3534 9.35467 12.6071 9.1213 12.5421 9.06774C12.4694 9.00781 11.8994 9.4924 11.8318 9.55617C11.8203 9.56764 11.8318 9.58677 11.8484 9.5855Z" fill="black"/>
<path d="M12.4402 10.4883C12.6315 10.4717 12.8228 10.3914 12.9783 10.2944C13.0204 10.2689 13.3125 10.0611 13.25 10.0113C13.1951 9.96924 12.8993 10.1542 12.847 10.1835C12.7016 10.2651 12.5499 10.3518 12.4249 10.4577C12.4121 10.4691 12.4236 10.4883 12.4402 10.4883V10.4883Z" fill="black"/>
<path d="M8.49199 11.3581C8.38487 11.3339 8.27774 11.3096 8.1719 11.279C7.98061 11.2242 7.80845 11.1426 7.63119 11.0584C7.61461 11.052 7.59803 11.0686 7.60568 11.0814C7.6873 11.2204 7.83268 11.3249 7.99209 11.3874C8.08136 11.4219 8.17573 11.4448 8.27265 11.4512C8.34151 11.455 8.50474 11.4614 8.56086 11.4129C8.61059 11.3709 8.53662 11.367 8.49199 11.3568V11.3581Z" fill="black"/>
<path d="M5.18388 11.4779C5.20173 11.4869 5.31906 11.5494 5.34329 11.5277C5.38665 11.4894 5.13415 11.2471 5.10354 11.2114C5.00024 11.0928 4.9097 10.9653 4.80768 10.8467C4.7962 10.8352 4.77325 10.8416 4.77325 10.8569C4.7707 11.0189 4.85232 11.1808 4.96326 11.3045C5.02448 11.3734 5.09972 11.4346 5.18516 11.4767L5.18388 11.4779Z" fill="black"/>
<path d="M4.16634 11.8516C4.21098 11.8184 4.00949 11.5812 3.98398 11.5417C3.90874 11.4269 3.85008 11.3045 3.78504 11.1846C3.77739 11.1718 3.75315 11.1731 3.74805 11.1884C3.70342 11.3338 3.74806 11.497 3.8335 11.6233C3.88068 11.6934 3.94444 11.7559 4.02096 11.8006C4.03881 11.8108 4.14084 11.8707 4.16634 11.8516V11.8516Z" fill="black"/>
<path d="M2.33372 10.6388C2.27123 10.788 2.29673 10.9602 2.36942 11.103C2.40896 11.1808 2.46635 11.2522 2.53776 11.3096C2.57474 11.3389 2.68824 11.4269 2.74563 11.4154C2.80301 11.404 2.75455 11.3657 2.73033 11.3338C2.67294 11.2573 2.61683 11.1808 2.56582 11.1004C2.474 10.9538 2.42171 10.7995 2.36942 10.6388C2.36432 10.6235 2.33882 10.6235 2.33244 10.6388H2.33372Z" fill="black"/>
<path d="M2.28786 9.86724C2.358 9.86469 2.39116 9.4311 2.39753 9.38519V9.37244C2.3376 9.47446 2.27766 9.57648 2.21899 9.6785C2.22665 9.78052 2.24578 9.86851 2.28786 9.86724Z" fill="black"/>
<path d="M3.20336 12.5733C3.24289 12.5988 3.57828 12.7544 3.59486 12.6677C3.60506 12.618 3.32322 12.4598 3.27732 12.4267C3.15362 12.3336 3.04394 12.229 2.92662 12.1308C2.91387 12.1206 2.89219 12.1308 2.89474 12.1461C2.92024 12.3183 3.05032 12.4751 3.20336 12.5746V12.5733Z" fill="black"/>
<path d="M2.85542 13.2556C2.94341 13.3257 3.04288 13.3844 3.15128 13.4239C3.18189 13.4354 3.37701 13.5081 3.40379 13.4711C3.42929 13.4354 3.03396 13.1855 2.98422 13.1472C2.82099 13.0197 2.68454 12.8743 2.54043 12.7302C2.52768 12.7174 2.50473 12.7302 2.50728 12.7455C2.55319 12.9444 2.68709 13.123 2.85415 13.2556H2.85542Z" fill="black"/>
<path d="M4.92386 13.6306C4.96849 13.6025 4.83714 13.5247 4.81291 13.5043C4.72875 13.4342 4.64586 13.3615 4.56807 13.285C4.42906 13.1485 4.32193 12.9955 4.21099 12.8412C4.20078 12.8272 4.17528 12.8348 4.17656 12.8514C4.18294 13.0465 4.28368 13.2352 4.42651 13.3793C4.50175 13.4546 4.59102 13.5209 4.69176 13.5668C4.73002 13.5847 4.87923 13.6573 4.92386 13.6306V13.6306Z" fill="black"/>
<path d="M5.23749 12.8501C5.2681 12.8615 5.4122 12.924 5.44408 12.9011C5.50147 12.8616 5.14822 12.6282 5.10358 12.5976C4.95565 12.4968 4.80645 12.3897 4.64449 12.3081C4.62919 12.3004 4.61006 12.317 4.61771 12.331C4.69677 12.4802 4.83068 12.6065 4.97478 12.7072C5.05512 12.7634 5.14312 12.8131 5.23749 12.8488V12.8501Z" fill="black"/>
<path d="M6.32395 12.354C6.3061 12.3489 6.29207 12.368 6.30227 12.3808C6.43745 12.5287 6.62746 12.6397 6.8213 12.7149C6.92715 12.757 7.03937 12.7889 7.15414 12.8042C7.1975 12.8105 7.37477 12.8437 7.41175 12.8131C7.45893 12.7723 7.33268 12.7417 7.29953 12.7276C7.18603 12.6805 7.0687 12.6371 6.95393 12.595C6.74351 12.5172 6.53819 12.4241 6.32395 12.354V12.354Z" fill="black"/>
<path d="M7.71661 14.0897C7.71279 14.054 7.51767 14.0374 7.48707 14.031C7.36082 14.0055 7.23457 13.9788 7.1096 13.9482C6.85582 13.8857 6.6199 13.79 6.37632 13.7033C6.35719 13.6969 6.34444 13.7186 6.35591 13.7301C6.5319 13.9035 6.77165 14.0234 7.02033 14.0884C7.07771 14.1037 7.72682 14.1981 7.71661 14.0884V14.0897Z" fill="black"/>
<path d="M5.34078 14.2006C5.38032 14.2261 5.65067 14.3651 5.68765 14.2949C5.71443 14.2439 5.50911 14.1177 5.46958 14.0909C5.35735 14.0131 5.24003 13.934 5.11378 13.8754C5.09975 13.869 5.0819 13.883 5.08573 13.897C5.12399 14.0195 5.22728 14.1266 5.33951 14.2006H5.34078Z" fill="black"/>
<path d="M3.06692 14.4136C3.13196 14.5985 3.26459 14.7656 3.41762 14.9008C3.50179 14.9747 3.59488 15.0398 3.6969 15.092C3.73644 15.1112 3.90095 15.2043 3.94558 15.1788C3.99149 15.152 3.87289 15.0742 3.84993 15.0538C3.75302 14.9683 3.65354 14.8867 3.55662 14.8038C3.39976 14.6712 3.25566 14.5271 3.09753 14.397C3.0835 14.3856 3.06182 14.3996 3.06692 14.4149V14.4136Z" fill="black"/>
<path d="M6.15819 16.2869C6.19135 16.2474 6.04851 16.2104 6.02046 16.1977C5.89676 16.1467 5.77179 16.0982 5.64809 16.0472C5.45042 15.9668 5.26168 15.8686 5.06529 15.787C5.04744 15.7807 5.03214 15.7998 5.04234 15.8125C5.16859 15.9732 5.35477 16.0956 5.55116 16.1798C5.65829 16.2257 5.77179 16.2614 5.88911 16.2793C5.93375 16.2857 6.12631 16.3239 6.15947 16.2857L6.15819 16.2869Z" fill="black"/>
<path d="M7.74845 16.0905C7.84664 16.1504 7.95505 16.2002 8.06472 16.241C8.10808 16.2575 8.53146 16.3889 8.53529 16.3187C8.53656 16.2958 8.43326 16.2461 8.41796 16.2371C8.32742 16.1836 8.23177 16.1377 8.13358 16.0981C8.09532 16.0828 7.61455 15.8915 7.60817 15.8992C7.6069 15.9005 7.60435 15.9017 7.60308 15.9005C7.60308 15.9005 7.6018 15.9005 7.60308 15.9005L7.60817 15.8954C7.62475 15.8775 7.56354 15.8418 7.55716 15.9005C7.54696 15.9783 7.68979 16.0573 7.74845 16.093V16.0905Z" fill="black"/>
<path d="M1.30211 13.2326C1.3391 13.2161 1.18734 13.0477 1.17459 13.0311C1.10445 12.9329 1.04069 12.8322 0.983299 12.7289C0.955243 12.6792 0.931019 12.6282 0.90934 12.5771C0.882559 12.6537 0.855773 12.7302 0.831543 12.8067C0.89148 12.9138 0.969274 13.0133 1.06619 13.0962C1.1019 13.1268 1.24983 13.2594 1.30211 13.2352V13.2326Z" fill="black"/>
<path d="M4.61779 6.71995C4.61269 6.75055 4.58974 6.8615 4.62035 6.87935C4.66115 6.90358 4.99527 6.31696 5.08964 6.13843C4.95191 6.2583 4.81801 6.37945 4.68666 6.50315C4.6535 6.57201 4.62799 6.64471 4.61652 6.71995H4.61779Z" fill="black"/>
<path d="M0.413086 15.1927C0.415636 15.3381 0.446243 15.486 0.476849 15.6276C0.493427 15.7079 0.513827 15.7882 0.544434 15.866C0.546984 15.8724 0.580146 15.9668 0.605651 15.9209C0.722975 15.6926 0.6337 15.3585 0.447513 15.1799C0.436035 15.1697 0.414361 15.1774 0.413086 15.1927V15.1927Z" fill="black"/>
<path d="M2.41148 15.1863C2.41148 15.1481 2.24697 15.0677 2.21892 15.0486C2.12327 14.9836 2.02891 14.9185 1.93709 14.8497C1.76493 14.7196 1.61827 14.5704 1.46397 14.425C1.44994 14.4122 1.42826 14.425 1.43209 14.4416C1.49712 14.6545 1.65271 14.8433 1.84017 14.9823C1.93582 15.0524 2.04038 15.1111 2.15516 15.1519C2.17811 15.1595 2.41021 15.2386 2.41148 15.1876V15.1863Z" fill="black"/>
<path d="M9.8577 13.7007C9.97375 13.753 10.1153 13.7683 10.2428 13.7607C10.262 13.7607 10.554 13.7058 10.4877 13.6663C10.3104 13.5719 10.0362 13.5847 9.8577 13.6676C9.84495 13.6739 9.84368 13.6943 9.8577 13.7007V13.7007Z" fill="black"/>
<path d="M15.5174 10.5291C15.8618 10.2996 16.099 9.86729 16.1359 9.48599C16.1372 9.46813 16.1117 9.46176 16.1015 9.47578C15.965 9.66325 15.8541 9.86856 15.7342 10.065C15.6717 10.167 15.6105 10.269 15.5557 10.3748C15.5519 10.3812 15.4626 10.5649 15.5187 10.5291H15.5174Z" fill="black"/>
<path d="M14.0444 10.2958C14.3504 10.2269 14.6131 9.92981 14.6578 9.65308C14.6603 9.63777 14.6374 9.62757 14.6259 9.63777C14.4946 9.75 14.3785 9.88007 14.2599 10.0025C14.2 10.0637 14.1413 10.1249 14.0877 10.1887C14.0852 10.1912 13.9819 10.3086 14.0457 10.2958H14.0444Z" fill="black"/>
<path d="M15.1526 12.2392C15.5301 12.0301 15.8413 11.6182 15.965 11.2381C15.9701 11.2216 15.9458 11.2101 15.9331 11.2216C15.7622 11.3861 15.6143 11.5735 15.4651 11.7533C15.3771 11.8605 15.2904 11.9689 15.2126 12.0824C15.2049 12.0926 15.0965 12.2685 15.1539 12.2379L15.1526 12.2392Z" fill="black"/>
<path d="M13.065 12.3731C13.2831 12.3604 13.4922 12.2698 13.6593 12.1461C13.7473 12.0811 13.8238 12.0033 13.8837 11.9153C13.9041 11.8847 14.001 11.7508 13.9755 11.71C13.9488 11.6666 13.8314 11.7942 13.8098 11.812C13.7281 11.8809 13.6452 11.9485 13.5598 12.0135C13.3991 12.1359 13.2231 12.2328 13.051 12.3412C13.0357 12.3514 13.0459 12.3731 13.0625 12.3718L13.065 12.3731Z" fill="black"/>
<path d="M13.5342 14.6393C13.8033 14.5998 14.0558 14.4889 14.2726 14.3435C14.3912 14.2631 14.4983 14.1713 14.5889 14.0655C14.6105 14.0413 14.7789 13.841 14.7432 13.8168C14.6947 13.7824 14.2509 14.1573 14.1935 14.1981C13.9793 14.3499 13.7459 14.4723 13.5202 14.6087C13.5036 14.6189 13.5164 14.6419 13.533 14.6393H13.5342Z" fill="black"/>
<path d="M16.0773 13.1179C16.0926 13.0758 16.1398 12.9419 16.1041 12.8985C16.0696 12.8552 16.0492 12.9126 16.0263 12.9445C15.9702 13.0248 15.9141 13.1051 15.8503 13.1804C15.733 13.3181 15.5927 13.4252 15.4448 13.5336C15.432 13.5438 15.4409 13.5655 15.4575 13.5642C15.6386 13.5553 15.8082 13.4648 15.9281 13.3449C15.9931 13.2786 16.0454 13.2021 16.076 13.1179H16.0773Z" fill="black"/>
<path d="M12.2655 15.4006C12.3102 15.3815 12.6239 15.1889 12.5461 15.1341C12.5244 15.1188 12.4122 15.1749 12.3943 15.1813C12.3153 15.2119 12.2362 15.2425 12.1571 15.2706C12.0066 15.3241 11.8511 15.3586 11.6968 15.4032C11.6802 15.4083 11.6802 15.43 11.6968 15.4363C11.8766 15.5001 12.0946 15.4746 12.2655 15.4006V15.4006Z" fill="black"/>
<path d="M13.5356 15.5103C13.5713 15.4836 13.7371 15.3637 13.7206 15.3139C13.7052 15.2668 13.5815 15.3497 13.5522 15.3624C13.4247 15.4211 13.2959 15.4785 13.1671 15.5346C12.9592 15.6251 12.7399 15.7029 12.5448 15.8164C12.5282 15.8266 12.5384 15.8483 12.5562 15.8483C12.782 15.8317 13.009 15.773 13.2156 15.6889C13.3291 15.6417 13.4387 15.5843 13.5344 15.5103H13.5356Z" fill="black"/>
<path d="M13.5625 16.5853C13.8316 16.5331 14.0904 16.4285 14.3289 16.3073C14.3863 16.278 14.9717 15.9452 14.9206 15.8814C14.8722 15.8215 14.334 16.1224 14.269 16.1569C14.0254 16.2831 13.7742 16.4068 13.5472 16.556C13.5306 16.5675 13.5446 16.5892 13.5625 16.5866V16.5853Z" fill="black"/>
<path d="M14.2587 15.5881C14.5036 15.5562 14.7382 15.4593 14.9423 15.3343C15.0494 15.2693 15.1488 15.194 15.2356 15.1073C15.2623 15.0805 15.4218 14.9352 15.3962 14.8943C15.3733 14.8574 14.9116 15.1621 14.8606 15.194C14.6579 15.319 14.4449 15.4299 14.2447 15.5575C14.2294 15.5677 14.2409 15.5906 14.2587 15.5881V15.5881Z" fill="black"/>
<path d="M15.8156 14.6253C16.0299 14.5628 16.2276 14.4429 16.3959 14.3116C16.4393 14.2784 16.804 13.9315 16.7224 13.9111C16.6803 13.9009 16.5566 14.0004 16.5247 14.0221C16.4239 14.0871 16.327 14.1585 16.2327 14.2312C16.0822 14.3473 15.9266 14.4646 15.7952 14.5998C15.7838 14.6125 15.7991 14.6317 15.8156 14.6278V14.6253Z" fill="black"/>
<path d="M16.7926 14.6826C16.8155 14.6443 16.9214 14.4735 16.887 14.4377C16.8513 14.3995 16.7454 14.5525 16.7199 14.5806C16.6281 14.6762 16.5299 14.768 16.4291 14.8548C16.2302 15.0269 16.0058 15.1799 15.8183 15.3623C15.8043 15.3763 15.8221 15.3955 15.8387 15.3891C16.0823 15.2998 16.3144 15.1646 16.5069 15.004C16.6192 14.9109 16.7199 14.8037 16.7926 14.6813V14.6826Z" fill="black"/>
<path d="M15.1808 16.602C15.4346 16.4948 15.6679 16.3431 15.8822 16.1811C16.011 16.0842 16.1334 15.9796 16.2444 15.8661C16.2941 15.8151 16.3425 15.7628 16.3872 15.7067C16.3846 15.7106 16.4637 15.5983 16.4025 15.6302C16.1691 15.7526 15.9587 15.9159 15.7547 16.074C15.5506 16.2334 15.3415 16.3941 15.1604 16.5752C15.1464 16.5892 15.1655 16.6083 15.1821 16.602H15.1808Z" fill="black"/>
</g>
<defs>
<clipPath id="clip0_4140_9687">
<rect width="16" height="16" rx="8" fill="white"/>
</clipPath>
</defs>
</svg>
