<svg width="512" height="512" viewBox="0 0 512 512" fill="none" xmlns="http://www.w3.org/2000/svg">
<path d="M64 192C64 85.9613 149.961 0 256 0V0C362.039 0 448 85.9613 448 192V320C448 426.039 362.039 512 256 512V512C149.961 512 64 426.039 64 320V192Z" fill="black"/>
<path d="M318.016 181H192.064L255.04 44.488L318.016 181ZM203.2 173.896H306.88L255.04 61.384L203.2 173.896Z" fill="white"/>
<path d="M198.016 207.368H312.064L258.688 286.28V341H251.584V286.28L198.016 207.368Z" fill="white"/>
<path d="M313.408 411.016V445H211.648V311.368H218.752V411.016H313.408Z" fill="white"/>
</svg>
